<?xml version="1.0"?><svg width="640" height="480" xmlns="http://www.w3.org/2000/svg" xmlns:xlink="http://www.w3.org/1999/xlink">
 <title>black spiral lollipop</title>
 <g>
  <title>Layer 1</title>
  <path d="m532.547913,272.070557c-48.909424,221.486694 -257.555756,189.688904 -216.451385,187.396851c113.742798,-6.342407 194.523529,-91.434998 187.47702,-206.73645c-6.31012,-103.251831 -83.44339,-191.544739 -188.250336,-184.459412c-92.761017,6.270996 -168.465958,76.999725 -161.332687,171.311066c6.22258,82.270477 78.291977,150.040558 162.106033,142.846527c71.780365,-6.161133 130.860413,-69.53241 123.586975,-142.846466c-6.080658,-61.290833 -60.777832,-111.708954 -123.586914,-104.327393c-50.802185,5.97049 -92.605103,52.032898 -85.06781,104.327332c5.810638,40.314606 43.309875,73.588348 85.06778,65.808258c29.826599,-5.557129 54.756042,-34.648987 46.548645,-65.808197c-5.089539,-19.322357 -26.241089,-36.4133 -46.548615,-27.289093c-8.825867,3.965454 -19.535187,19.754242 -7.592743,27.471344c7.237518,6.63559 1.564209,15.162384 -4.511108,17.974274c-16.463684,7.620056 -32.490753,-8.684387 -35.179962,-23.917328c-4.810364,-27.248138 19.676331,-49.561462 45.30368,-51.504486c37.609192,-2.851501 66.951904,30.750122 67.829041,66.690063c1.169098,47.902344 -41.844147,84.467407 -88.076477,84.153564c-58.17868,-0.394897 -102.045273,-52.945618 -100.478073,-109.46286c1.898087,-68.449921 64.050919,-119.658936 130.849228,-116.802612c78.719513,3.366058 137.294922,75.158508 133.127136,152.235626c-4.811859,88.988586 -86.267609,154.945862 -173.622009,149.45166c-99.257614,-6.242859 -172.607208,-97.377808 -165.776184,-195.008392c7.663376,-109.526764 108.488831,-190.276184 216.394775,-182.100708c119.796051,9.076324 207.709625,122.416168 198.18399,240.596832z" id="path2460" stroke-width="1px" stroke="#d43fa8" fill-rule="evenodd" fill="#000000"/>
  <path d="m532.420898,247.794678a215.255905,212.978058 0 1 1-430.51178,0a215.255905,212.978058 0 1 1430.51178,0z" id="path2382" stroke-dashoffset="0" stroke-miterlimit="4" marker-end="none" marker-mid="none" marker-start="none" stroke-width="10" stroke="#000000" fill-rule="evenodd" fill="none"/>
  <use id="use3168" x="106.166" y="-2.20731" width="744.09448" height="1052.3622" xlink:href="#path3164"/>
 </g>
</svg>